<mxfile host="app.diagrams.net" agent="Mozilla/5.0 (Macintosh; Intel Mac OS X 10_15_7) AppleWebKit/537.36 (KHTML, like Gecko) Chrome/127.0.0.0 Safari/537.36" version="24.7.6">
  <diagram name="componentes" id="6ea6beEfx3NTblesf1mL">
    <mxGraphModel dx="3311" dy="1500" grid="1" gridSize="10" guides="1" tooltips="1" connect="1" arrows="1" fold="1" page="1" pageScale="1" pageWidth="827" pageHeight="1169" math="0" shadow="0">
      <root>
        <mxCell id="0" />
        <mxCell id="1" parent="0" />
        <mxCell id="HvEhoI65BLa4Ol27kd9m-26" value="Persistencia" style="shape=folder;fontStyle=1;tabWidth=110;tabHeight=30;tabPosition=left;html=1;boundedLbl=1;labelInHeader=1;container=1;collapsible=0;whiteSpace=wrap;" vertex="1" parent="1">
          <mxGeometry x="30" y="1430" width="970" height="290" as="geometry" />
        </mxCell>
        <mxCell id="HvEhoI65BLa4Ol27kd9m-27" value="" style="html=1;strokeColor=none;resizeWidth=1;resizeHeight=1;fillColor=none;part=1;connectable=0;allowArrows=0;deletable=0;whiteSpace=wrap;" vertex="1" parent="HvEhoI65BLa4Ol27kd9m-26">
          <mxGeometry width="970" height="203" relative="1" as="geometry">
            <mxPoint y="30" as="offset" />
          </mxGeometry>
        </mxCell>
        <mxCell id="HvEhoI65BLa4Ol27kd9m-20" value="&lt;p style=&quot;margin:0px;margin-top:6px;text-align:center;&quot;&gt;&lt;b&gt;Component&lt;/b&gt;&lt;/p&gt;&lt;hr size=&quot;1&quot; style=&quot;border-style:solid;&quot;&gt;&lt;p style=&quot;text-align: center; margin: 0px 0px 0px 8px;&quot;&gt;SeguridadDatos&lt;br&gt;&lt;/p&gt;" style="align=left;overflow=fill;html=1;dropTarget=0;whiteSpace=wrap;" vertex="1" parent="HvEhoI65BLa4Ol27kd9m-26">
          <mxGeometry x="340" y="110" width="160" height="60" as="geometry" />
        </mxCell>
        <mxCell id="HvEhoI65BLa4Ol27kd9m-21" value="" style="shape=component;jettyWidth=8;jettyHeight=4;" vertex="1" parent="HvEhoI65BLa4Ol27kd9m-20">
          <mxGeometry x="1" width="20" height="20" relative="1" as="geometry">
            <mxPoint x="-24" y="4" as="offset" />
          </mxGeometry>
        </mxCell>
        <mxCell id="HvEhoI65BLa4Ol27kd9m-41" value="&lt;p style=&quot;margin:0px;margin-top:6px;text-align:center;&quot;&gt;&lt;b&gt;Component&lt;/b&gt;&lt;/p&gt;&lt;hr size=&quot;1&quot; style=&quot;border-style:solid;&quot;&gt;&lt;p style=&quot;text-align: center; margin: 0px 0px 0px 8px;&quot;&gt;MonitoreoAuditoria&lt;br&gt;&lt;/p&gt;" style="align=left;overflow=fill;html=1;dropTarget=0;whiteSpace=wrap;" vertex="1" parent="HvEhoI65BLa4Ol27kd9m-26">
          <mxGeometry x="100" y="210" width="160" height="60" as="geometry" />
        </mxCell>
        <mxCell id="HvEhoI65BLa4Ol27kd9m-42" value="" style="shape=component;jettyWidth=8;jettyHeight=4;" vertex="1" parent="HvEhoI65BLa4Ol27kd9m-41">
          <mxGeometry x="1" width="20" height="20" relative="1" as="geometry">
            <mxPoint x="-24" y="4" as="offset" />
          </mxGeometry>
        </mxCell>
        <mxCell id="HvEhoI65BLa4Ol27kd9m-43" value="&lt;p style=&quot;margin:0px;margin-top:6px;text-align:center;&quot;&gt;&lt;b&gt;Component&lt;/b&gt;&lt;/p&gt;&lt;hr size=&quot;1&quot; style=&quot;border-style:solid;&quot;&gt;&lt;p style=&quot;text-align: center; margin: 0px 0px 0px 8px;&quot;&gt;ControlAutorizacion&lt;br&gt;&lt;/p&gt;" style="align=left;overflow=fill;html=1;dropTarget=0;whiteSpace=wrap;" vertex="1" parent="HvEhoI65BLa4Ol27kd9m-26">
          <mxGeometry x="350" y="200" width="160" height="60" as="geometry" />
        </mxCell>
        <mxCell id="HvEhoI65BLa4Ol27kd9m-44" value="" style="shape=component;jettyWidth=8;jettyHeight=4;" vertex="1" parent="HvEhoI65BLa4Ol27kd9m-43">
          <mxGeometry x="1" width="20" height="20" relative="1" as="geometry">
            <mxPoint x="-24" y="4" as="offset" />
          </mxGeometry>
        </mxCell>
        <mxCell id="HvEhoI65BLa4Ol27kd9m-28" value="&lt;font style=&quot;font-size: 20px;&quot;&gt;Presentaci贸n&lt;/font&gt;" style="shape=folder;fontStyle=1;tabWidth=140;tabHeight=20;tabPosition=left;html=1;boundedLbl=1;labelInHeader=1;container=1;collapsible=0;whiteSpace=wrap;strokeColor=default;" vertex="1" parent="1">
          <mxGeometry x="50" y="280" width="970" height="380" as="geometry" />
        </mxCell>
        <mxCell id="HvEhoI65BLa4Ol27kd9m-29" value="" style="html=1;strokeColor=none;resizeWidth=1;resizeHeight=1;fillColor=none;part=1;connectable=0;allowArrows=0;deletable=0;whiteSpace=wrap;" vertex="1" parent="HvEhoI65BLa4Ol27kd9m-28">
          <mxGeometry width="970" height="266" relative="1" as="geometry">
            <mxPoint y="30" as="offset" />
          </mxGeometry>
        </mxCell>
        <mxCell id="HvEhoI65BLa4Ol27kd9m-6" value="&lt;p style=&quot;margin:0px;margin-top:6px;text-align:center;&quot;&gt;&lt;b&gt;&lt;font style=&quot;font-size: 12px;&quot;&gt;Component&lt;/font&gt;&lt;/b&gt;&lt;/p&gt;&lt;hr size=&quot;1&quot; style=&quot;border-style:solid;&quot;&gt;&lt;p style=&quot;text-align: center; margin: 0px 0px 0px 8px;&quot;&gt;&lt;font style=&quot;font-size: 12px;&quot;&gt;Login&lt;/font&gt;&lt;br&gt;&lt;/p&gt;" style="align=left;overflow=fill;html=1;dropTarget=0;whiteSpace=wrap;" vertex="1" parent="HvEhoI65BLa4Ol27kd9m-28">
          <mxGeometry x="55.76" y="201" width="204.24" height="79" as="geometry" />
        </mxCell>
        <mxCell id="HvEhoI65BLa4Ol27kd9m-7" value="" style="shape=component;jettyWidth=8;jettyHeight=4;" vertex="1" parent="HvEhoI65BLa4Ol27kd9m-6">
          <mxGeometry x="1" width="20" height="20" relative="1" as="geometry">
            <mxPoint x="-24" y="4" as="offset" />
          </mxGeometry>
        </mxCell>
        <mxCell id="HvEhoI65BLa4Ol27kd9m-8" value="&lt;p style=&quot;text-align: center; margin: 6px 0px 0px;&quot;&gt;&lt;b&gt;&lt;font style=&quot;font-size: 12px;&quot;&gt;Component&lt;/font&gt;&lt;/b&gt;&lt;/p&gt;&lt;hr size=&quot;1&quot; style=&quot;text-align: center; border-style: solid;&quot;&gt;&lt;p style=&quot;text-align: center; margin: 0px 0px 0px 8px;&quot;&gt;&lt;font style=&quot;font-size: 12px;&quot;&gt;Dashboard&lt;/font&gt;&lt;br&gt;&lt;/p&gt;" style="align=left;overflow=fill;html=1;dropTarget=0;whiteSpace=wrap;" vertex="1" parent="HvEhoI65BLa4Ol27kd9m-28">
          <mxGeometry x="340" y="201" width="220" height="79" as="geometry" />
        </mxCell>
        <mxCell id="HvEhoI65BLa4Ol27kd9m-9" value="" style="shape=component;jettyWidth=8;jettyHeight=4;" vertex="1" parent="HvEhoI65BLa4Ol27kd9m-8">
          <mxGeometry x="1" width="20" height="20" relative="1" as="geometry">
            <mxPoint x="-24" y="4" as="offset" />
          </mxGeometry>
        </mxCell>
        <mxCell id="HvEhoI65BLa4Ol27kd9m-10" value="&lt;p style=&quot;margin:0px;margin-top:6px;text-align:center;&quot;&gt;&lt;b&gt;Component&lt;/b&gt;&lt;/p&gt;&lt;hr size=&quot;1&quot; style=&quot;border-style:solid;&quot;&gt;&lt;p style=&quot;text-align: center; margin: 0px 0px 0px 8px;&quot;&gt;Gesti贸nIncidentes&lt;br&gt;&lt;/p&gt;" style="align=left;overflow=fill;html=1;dropTarget=0;whiteSpace=wrap;" vertex="1" parent="HvEhoI65BLa4Ol27kd9m-28">
          <mxGeometry x="365.76" y="90" width="194.24" height="80" as="geometry" />
        </mxCell>
        <mxCell id="HvEhoI65BLa4Ol27kd9m-11" value="" style="shape=component;jettyWidth=8;jettyHeight=4;" vertex="1" parent="HvEhoI65BLa4Ol27kd9m-10">
          <mxGeometry x="1" width="20" height="20" relative="1" as="geometry">
            <mxPoint x="-24" y="4" as="offset" />
          </mxGeometry>
        </mxCell>
        <mxCell id="HvEhoI65BLa4Ol27kd9m-12" value="&lt;p style=&quot;margin:0px;margin-top:6px;text-align:center;&quot;&gt;&lt;b&gt;Component&lt;/b&gt;&lt;/p&gt;&lt;hr size=&quot;1&quot; style=&quot;border-style:solid;&quot;&gt;&lt;p style=&quot;text-align: center; margin: 0px 0px 0px 8px;&quot;&gt;Gesti贸nLlamadas&lt;br&gt;&lt;/p&gt;" style="align=left;overflow=fill;html=1;dropTarget=0;whiteSpace=wrap;" vertex="1" parent="HvEhoI65BLa4Ol27kd9m-28">
          <mxGeometry x="130" y="90" width="181.86" height="60" as="geometry" />
        </mxCell>
        <mxCell id="HvEhoI65BLa4Ol27kd9m-13" value="" style="shape=component;jettyWidth=8;jettyHeight=4;" vertex="1" parent="HvEhoI65BLa4Ol27kd9m-12">
          <mxGeometry x="1" width="20" height="20" relative="1" as="geometry">
            <mxPoint x="-24" y="4" as="offset" />
          </mxGeometry>
        </mxCell>
        <mxCell id="HvEhoI65BLa4Ol27kd9m-14" value="&lt;p style=&quot;margin:0px;margin-top:6px;text-align:center;&quot;&gt;&lt;b&gt;Component&lt;/b&gt;&lt;/p&gt;&lt;hr size=&quot;1&quot; style=&quot;border-style:solid;&quot;&gt;&lt;p style=&quot;text-align: center; margin: 0px 0px 0px 8px;&quot;&gt;InterfazM贸vil&lt;br&gt;&lt;/p&gt;" style="align=left;overflow=fill;html=1;dropTarget=0;whiteSpace=wrap;" vertex="1" parent="HvEhoI65BLa4Ol27kd9m-28">
          <mxGeometry x="690.51" y="250" width="169.49" height="60" as="geometry" />
        </mxCell>
        <mxCell id="HvEhoI65BLa4Ol27kd9m-15" value="" style="shape=component;jettyWidth=8;jettyHeight=4;" vertex="1" parent="HvEhoI65BLa4Ol27kd9m-14">
          <mxGeometry x="1" width="20" height="20" relative="1" as="geometry">
            <mxPoint x="-24" y="4" as="offset" />
          </mxGeometry>
        </mxCell>
        <mxCell id="HvEhoI65BLa4Ol27kd9m-80" value="" style="html=1;rounded=0;" vertex="1" parent="HvEhoI65BLa4Ol27kd9m-28">
          <mxGeometry x="250" y="240.5" width="20" height="20" as="geometry" />
        </mxCell>
        <mxCell id="HvEhoI65BLa4Ol27kd9m-88" value="" style="html=1;rounded=0;" vertex="1" parent="HvEhoI65BLa4Ol27kd9m-28">
          <mxGeometry x="550" y="240.5" width="20" height="20" as="geometry" />
        </mxCell>
        <mxCell id="HvEhoI65BLa4Ol27kd9m-95" value="" style="html=1;rounded=0;" vertex="1" parent="HvEhoI65BLa4Ol27kd9m-28">
          <mxGeometry x="550" y="131" width="20" height="20" as="geometry" />
        </mxCell>
        <mxCell id="HvEhoI65BLa4Ol27kd9m-30" value="L贸gica de Negocio" style="shape=folder;fontStyle=1;tabWidth=126;tabHeight=30;tabPosition=left;html=1;boundedLbl=1;labelInHeader=1;container=1;collapsible=0;whiteSpace=wrap;" vertex="1" parent="1">
          <mxGeometry x="50" y="770" width="970" height="360" as="geometry" />
        </mxCell>
        <mxCell id="HvEhoI65BLa4Ol27kd9m-31" value="" style="html=1;strokeColor=none;resizeWidth=1;resizeHeight=1;fillColor=none;part=1;connectable=0;allowArrows=0;deletable=0;whiteSpace=wrap;" vertex="1" parent="HvEhoI65BLa4Ol27kd9m-30">
          <mxGeometry width="3008.227848101266" height="252" relative="1" as="geometry">
            <mxPoint y="30" as="offset" />
          </mxGeometry>
        </mxCell>
        <mxCell id="HvEhoI65BLa4Ol27kd9m-33" value="&lt;p style=&quot;margin:0px;margin-top:6px;text-align:center;&quot;&gt;&lt;b&gt;Component&lt;/b&gt;&lt;/p&gt;&lt;hr size=&quot;1&quot; style=&quot;border-style:solid;&quot;&gt;&lt;p style=&quot;text-align: center; margin: 0px 0px 0px 8px;&quot;&gt;&lt;font style=&quot;font-size: 12px;&quot;&gt;GestorAutenticacion&lt;/font&gt;&lt;br&gt;&lt;/p&gt;" style="align=left;overflow=fill;html=1;dropTarget=0;whiteSpace=wrap;" vertex="1" parent="HvEhoI65BLa4Ol27kd9m-30">
          <mxGeometry x="90" y="108" width="230" height="102" as="geometry" />
        </mxCell>
        <mxCell id="HvEhoI65BLa4Ol27kd9m-34" value="" style="shape=component;jettyWidth=8;jettyHeight=4;" vertex="1" parent="HvEhoI65BLa4Ol27kd9m-33">
          <mxGeometry x="1" width="20" height="20" relative="1" as="geometry">
            <mxPoint x="-24" y="4" as="offset" />
          </mxGeometry>
        </mxCell>
        <mxCell id="HvEhoI65BLa4Ol27kd9m-22" value="&lt;p style=&quot;margin: 6px 0px 0px; text-align: center; font-size: 20px;&quot;&gt;&lt;b&gt;&lt;font style=&quot;font-size: 20px;&quot;&gt;Component&lt;/font&gt;&lt;/b&gt;&lt;/p&gt;&lt;hr size=&quot;1&quot; style=&quot;border-style: solid; font-size: 20px;&quot;&gt;&lt;p style=&quot;text-align: center; margin: 0px 0px 0px 8px;&quot;&gt;&lt;font style=&quot;font-size: 12px;&quot;&gt;ManejadorIncidentes&lt;/font&gt;&lt;br&gt;&lt;/p&gt;" style="align=left;overflow=fill;html=1;dropTarget=0;whiteSpace=wrap;" vertex="1" parent="HvEhoI65BLa4Ol27kd9m-30">
          <mxGeometry x="380" y="103" width="260" height="107" as="geometry" />
        </mxCell>
        <mxCell id="HvEhoI65BLa4Ol27kd9m-23" value="" style="shape=component;jettyWidth=8;jettyHeight=4;" vertex="1" parent="HvEhoI65BLa4Ol27kd9m-22">
          <mxGeometry x="1" width="20" height="20" relative="1" as="geometry">
            <mxPoint x="-24" y="4" as="offset" />
          </mxGeometry>
        </mxCell>
        <mxCell id="HvEhoI65BLa4Ol27kd9m-18" value="&lt;p style=&quot;margin:0px;margin-top:6px;text-align:center;&quot;&gt;&lt;b&gt;Component&lt;/b&gt;&lt;/p&gt;&lt;hr size=&quot;1&quot; style=&quot;border-style:solid;&quot;&gt;&lt;p style=&quot;text-align: center; margin: 0px 0px 0px 8px;&quot;&gt;ManejadorLlamadas&lt;br&gt;&lt;/p&gt;" style="align=left;overflow=fill;html=1;dropTarget=0;whiteSpace=wrap;" vertex="1" parent="HvEhoI65BLa4Ol27kd9m-30">
          <mxGeometry x="767" y="123" width="160" height="72" as="geometry" />
        </mxCell>
        <mxCell id="HvEhoI65BLa4Ol27kd9m-19" value="" style="shape=component;jettyWidth=8;jettyHeight=4;" vertex="1" parent="HvEhoI65BLa4Ol27kd9m-18">
          <mxGeometry x="1" width="20" height="20" relative="1" as="geometry">
            <mxPoint x="-24" y="4" as="offset" />
          </mxGeometry>
        </mxCell>
        <mxCell id="HvEhoI65BLa4Ol27kd9m-37" value="&lt;p style=&quot;margin:0px;margin-top:6px;text-align:center;&quot;&gt;&lt;b&gt;Component&lt;/b&gt;&lt;/p&gt;&lt;hr size=&quot;1&quot; style=&quot;border-style:solid;&quot;&gt;&lt;p style=&quot;text-align: center; margin: 0px 0px 0px 8px;&quot;&gt;MotorAutomatizacion&lt;br&gt;&lt;/p&gt;" style="align=left;overflow=fill;html=1;dropTarget=0;whiteSpace=wrap;" vertex="1" parent="HvEhoI65BLa4Ol27kd9m-30">
          <mxGeometry x="80" y="252" width="160" height="72" as="geometry" />
        </mxCell>
        <mxCell id="HvEhoI65BLa4Ol27kd9m-38" value="" style="shape=component;jettyWidth=8;jettyHeight=4;" vertex="1" parent="HvEhoI65BLa4Ol27kd9m-37">
          <mxGeometry x="1" width="20" height="20" relative="1" as="geometry">
            <mxPoint x="-24" y="4" as="offset" />
          </mxGeometry>
        </mxCell>
        <mxCell id="HvEhoI65BLa4Ol27kd9m-39" value="&lt;p style=&quot;margin:0px;margin-top:6px;text-align:center;&quot;&gt;&lt;b&gt;Component&lt;/b&gt;&lt;/p&gt;&lt;hr size=&quot;1&quot; style=&quot;border-style:solid;&quot;&gt;&lt;p style=&quot;text-align: center; margin: 0px 0px 0px 8px;&quot;&gt;GestorFacturacion&lt;br&gt;&lt;/p&gt;" style="align=left;overflow=fill;html=1;dropTarget=0;whiteSpace=wrap;" vertex="1" parent="HvEhoI65BLa4Ol27kd9m-30">
          <mxGeometry x="364" y="264" width="160" height="72" as="geometry" />
        </mxCell>
        <mxCell id="HvEhoI65BLa4Ol27kd9m-40" value="" style="shape=component;jettyWidth=8;jettyHeight=4;" vertex="1" parent="HvEhoI65BLa4Ol27kd9m-39">
          <mxGeometry x="1" width="20" height="20" relative="1" as="geometry">
            <mxPoint x="-24" y="4" as="offset" />
          </mxGeometry>
        </mxCell>
        <mxCell id="HvEhoI65BLa4Ol27kd9m-78" value="" style="html=1;rounded=0;" vertex="1" parent="HvEhoI65BLa4Ol27kd9m-30">
          <mxGeometry x="80" y="160" width="20" height="20" as="geometry" />
        </mxCell>
        <mxCell id="HvEhoI65BLa4Ol27kd9m-91" value="" style="html=1;rounded=0;" vertex="1" parent="HvEhoI65BLa4Ol27kd9m-30">
          <mxGeometry x="370" y="160" width="20" height="20" as="geometry" />
        </mxCell>
        <mxCell id="HvEhoI65BLa4Ol27kd9m-100" value="&lt;p style=&quot;margin:0px;margin-top:6px;text-align:center;&quot;&gt;&lt;b&gt;Component&lt;/b&gt;&lt;/p&gt;&lt;hr size=&quot;1&quot; style=&quot;border-style:solid;&quot;&gt;&lt;p style=&quot;text-align: center; margin: 0px 0px 0px 8px;&quot;&gt;ManejadorAnalitica&lt;br&gt;&lt;/p&gt;" style="align=left;overflow=fill;html=1;dropTarget=0;whiteSpace=wrap;" vertex="1" parent="HvEhoI65BLa4Ol27kd9m-30">
          <mxGeometry x="580" y="274" width="160" height="72" as="geometry" />
        </mxCell>
        <mxCell id="HvEhoI65BLa4Ol27kd9m-101" value="" style="shape=component;jettyWidth=8;jettyHeight=4;" vertex="1" parent="HvEhoI65BLa4Ol27kd9m-100">
          <mxGeometry x="1" width="20" height="20" relative="1" as="geometry">
            <mxPoint x="-24" y="4" as="offset" />
          </mxGeometry>
        </mxCell>
        <mxCell id="HvEhoI65BLa4Ol27kd9m-82" value="" style="ellipse;html=1;fontSize=11;align=center;fillColor=none;points=[];aspect=fixed;resizable=0;verticalAlign=bottom;labelPosition=center;verticalLabelPosition=top;flipH=1;" vertex="1" parent="1">
          <mxGeometry x="-8" y="708" width="8" height="8" as="geometry" />
        </mxCell>
        <mxCell id="HvEhoI65BLa4Ol27kd9m-81" value="" style="endArrow=none;html=1;rounded=0;align=center;verticalAlign=top;endFill=0;labelBackgroundColor=none;endSize=2;" edge="1" source="HvEhoI65BLa4Ol27kd9m-80" parent="1">
          <mxGeometry relative="1" as="geometry">
            <mxPoint y="710" as="targetPoint" />
            <Array as="points">
              <mxPoint x="340" y="530" />
              <mxPoint x="340" y="710" />
              <mxPoint x="30" y="710" />
            </Array>
          </mxGeometry>
        </mxCell>
        <mxCell id="HvEhoI65BLa4Ol27kd9m-92" style="edgeStyle=orthogonalEdgeStyle;rounded=0;orthogonalLoop=1;jettySize=auto;html=1;" edge="1" parent="1" source="HvEhoI65BLa4Ol27kd9m-90" target="HvEhoI65BLa4Ol27kd9m-91">
          <mxGeometry relative="1" as="geometry">
            <Array as="points">
              <mxPoint x="654" y="710" />
              <mxPoint x="400" y="710" />
              <mxPoint x="400" y="940" />
            </Array>
          </mxGeometry>
        </mxCell>
        <mxCell id="HvEhoI65BLa4Ol27kd9m-90" value="" style="ellipse;html=1;fontSize=11;align=center;fillColor=none;points=[];aspect=fixed;resizable=0;verticalAlign=bottom;labelPosition=center;verticalLabelPosition=top;flipH=1;" vertex="1" parent="1">
          <mxGeometry x="650" y="708" width="8" height="8" as="geometry" />
        </mxCell>
        <mxCell id="HvEhoI65BLa4Ol27kd9m-89" value="" style="endArrow=none;html=1;rounded=0;align=center;verticalAlign=top;endFill=0;labelBackgroundColor=none;endSize=2;" edge="1" source="HvEhoI65BLa4Ol27kd9m-88" target="HvEhoI65BLa4Ol27kd9m-90" parent="1">
          <mxGeometry relative="1" as="geometry">
            <Array as="points">
              <mxPoint x="654" y="530" />
            </Array>
          </mxGeometry>
        </mxCell>
        <mxCell id="HvEhoI65BLa4Ol27kd9m-83" style="edgeStyle=orthogonalEdgeStyle;rounded=0;orthogonalLoop=1;jettySize=auto;html=1;entryX=0;entryY=0.5;entryDx=0;entryDy=0;exitX=0.532;exitY=1.062;exitDx=0;exitDy=0;exitPerimeter=0;" edge="1" parent="1" source="HvEhoI65BLa4Ol27kd9m-82" target="HvEhoI65BLa4Ol27kd9m-78">
          <mxGeometry relative="1" as="geometry">
            <mxPoint x="-4" y="720" as="sourcePoint" />
            <mxPoint x="116" y="1102" as="targetPoint" />
            <Array as="points">
              <mxPoint x="-4" y="720" />
              <mxPoint x="-4" y="720" />
              <mxPoint x="-4" y="940" />
            </Array>
          </mxGeometry>
        </mxCell>
        <mxCell id="HvEhoI65BLa4Ol27kd9m-99" style="edgeStyle=orthogonalEdgeStyle;rounded=0;orthogonalLoop=1;jettySize=auto;html=1;exitX=0.833;exitY=0.729;exitDx=0;exitDy=0;exitPerimeter=0;" edge="1" parent="1" source="HvEhoI65BLa4Ol27kd9m-97" target="HvEhoI65BLa4Ol27kd9m-91">
          <mxGeometry relative="1" as="geometry">
            <mxPoint x="730" y="680" as="sourcePoint" />
            <Array as="points">
              <mxPoint x="700" y="696" />
              <mxPoint x="700" y="940" />
            </Array>
          </mxGeometry>
        </mxCell>
        <mxCell id="HvEhoI65BLa4Ol27kd9m-97" value="" style="ellipse;html=1;fontSize=11;align=center;fillColor=none;points=[];aspect=fixed;resizable=0;verticalAlign=bottom;labelPosition=center;verticalLabelPosition=top;flipH=1;" vertex="1" parent="1">
          <mxGeometry x="760" y="690" width="8" height="8" as="geometry" />
        </mxCell>
        <mxCell id="HvEhoI65BLa4Ol27kd9m-96" value="" style="endArrow=none;html=1;rounded=0;align=center;verticalAlign=top;endFill=0;labelBackgroundColor=none;endSize=2;" edge="1" source="HvEhoI65BLa4Ol27kd9m-95" target="HvEhoI65BLa4Ol27kd9m-97" parent="1">
          <mxGeometry relative="1" as="geometry" />
        </mxCell>
      </root>
    </mxGraphModel>
  </diagram>
</mxfile>
